<?xml version="1.0" encoding="UTF-8"?>
<!-- Generator: visioncortex VTracer 0.6.4 -->
<svg version="1.1" xmlns="http://www.w3.org/2000/svg" width="270" height="270">
<path d="M0 0 C1.21 0.03 1.21 0.03 2.44 0.06 C2.44 0.72 2.44 1.38 2.44 2.06 C3.14 2.31 3.85 2.55 4.57 2.8 C7.85 4.24 10.38 6.05 13.25 8.19 C19.63 12.85 26.16 17.26 32.75 21.62 C43.63 28.84 54.44 36.16 65.23 43.52 C68.95 46.05 72.68 48.58 76.44 51.06 C75.88 55.85 74.4 59.72 72.26 63.99 C71.94 64.64 71.62 65.3 71.29 65.98 C70.24 68.11 69.18 70.24 68.12 72.38 C67.39 73.87 66.66 75.36 65.92 76.86 C64.45 79.86 62.98 82.86 61.5 85.86 C58.73 91.49 56.02 97.15 53.31 102.81 C50.17 109.36 47.03 115.91 43.87 122.45 C43.56 123.08 43.26 123.71 42.95 124.36 C41.73 126.88 40.51 129.4 39.28 131.93 C36.43 137.82 33.59 143.7 30.84 149.64 C30.47 150.44 30.1 151.25 29.72 152.08 C29.05 153.52 28.4 154.96 27.75 156.41 C25.66 160.95 25.66 160.95 23.44 162.06 C21.13 145.89 18.82 129.72 16.44 113.06 C15.18 122.53 14 131.91 13.14 141.4 C12.97 143.26 12.97 143.26 12.79 145.16 C12.55 147.82 12.31 150.48 12.06 153.14 C11.68 157.36 11.29 161.59 10.9 165.81 C9.94 176.29 8.98 186.77 8.02 197.24 C7.27 205.41 6.53 213.58 5.77 221.74 C5.39 225.93 5 230.11 4.63 234.3 C4.33 237.52 4.03 240.75 3.73 243.98 C3.63 245.12 3.53 246.25 3.43 247.43 C2.72 255.02 1.68 262.53 0.44 270.06 C-0.22 270.06 -0.88 270.06 -1.56 270.06 C-1.72 269.51 -1.87 268.97 -2.03 268.4 C-4.06 261.2 -6.09 254.01 -8.12 246.81 C-8.46 245.64 -8.79 244.47 -9.13 243.26 C-13.01 229.52 -16.92 215.78 -20.9 202.07 C-21.42 200.28 -21.42 200.28 -21.95 198.45 C-23.62 192.67 -25.3 186.9 -26.99 181.13 C-27.6 179.04 -28.2 176.96 -28.81 174.87 C-29.09 173.91 -29.37 172.96 -29.66 171.98 C-30.04 170.67 -30.04 170.67 -30.42 169.34 C-30.64 168.58 -30.87 167.82 -31.09 167.04 C-31.56 165.06 -31.56 165.06 -31.56 162.06 C-32.22 162.06 -32.88 162.06 -33.56 162.06 C-33.79 164.08 -34.02 166.1 -34.25 168.12 C-34.56 170.06 -34.56 170.06 -35.56 172.06 C-36.22 172.06 -36.88 172.06 -37.56 172.06 C-37.87 171.33 -38.17 170.59 -38.49 169.84 C-45.14 153.81 -51.92 137.84 -58.88 121.94 C-59.23 121.13 -59.58 120.32 -59.95 119.49 C-61.39 116.19 -62.83 112.89 -64.27 109.59 C-67.98 101.13 -71.66 92.65 -75.33 84.17 C-76.02 82.58 -76.71 80.99 -77.4 79.4 C-79.47 74.63 -81.52 69.85 -83.56 65.06 C-84 64.03 -84.44 63.01 -84.9 61.95 C-85.45 60.62 -85.45 60.62 -86.01 59.27 C-86.32 58.54 -86.62 57.81 -86.94 57.05 C-87.56 55.06 -87.56 55.06 -87.56 51.06 C-85.57 49.42 -85.57 49.42 -82.82 47.83 C-81.84 47.25 -80.85 46.68 -79.84 46.09 C-78.28 45.21 -78.28 45.21 -76.69 44.31 C-75.65 43.71 -74.62 43.11 -73.56 42.49 C-65.88 38.06 -65.88 38.06 -63.56 38.06 C-57.95 54.89 -52.34 71.72 -46.56 89.06 C-48.35 74.77 -50.16 60.52 -52.29 46.28 C-52.45 45.14 -52.62 44.01 -52.79 42.83 C-52.94 41.84 -53.09 40.84 -53.24 39.82 C-54.05 32.88 -54.05 32.88 -52.46 30.21 C-51.96 29.65 -51.46 29.09 -50.94 28.51 C-50.13 27.59 -50.13 27.59 -49.3 26.65 C-48.44 25.71 -48.44 25.71 -47.56 24.75 C-46.7 23.78 -46.7 23.78 -45.83 22.79 C-44.42 21.21 -42.99 19.63 -41.56 18.06 C-39.98 18.37 -38.4 18.69 -36.81 19 C-35.93 19.17 -35.05 19.35 -34.14 19.53 C-31.56 20.06 -31.56 20.06 -29.61 20.93 C-26.65 21.12 -25.29 19.57 -23.15 17.69 C-22.33 16.95 -22.33 16.95 -21.5 16.19 C-20.35 15.17 -19.2 14.16 -18.04 13.14 C-17.46 12.63 -16.89 12.11 -16.29 11.58 C-13.69 9.29 -11 7.12 -8.31 4.94 C-2.3 0.06 -2.3 0.06 0 0 Z " fill="#90794B" transform="translate(139.5625,-0.0625)"/>
<path d="M0 0 C4 1 4 1 18 9 C18 48.6 18 88.2 18 129 C9.75 133.62 1.5 138.24 -7 143 C-16.04 148.27 -16.04 148.27 -25.07 153.55 C-33.78 158.64 -42.58 163.58 -51.38 168.52 C-53.91 169.95 -56.43 171.38 -58.96 172.81 C-59.71 173.24 -60.46 173.66 -61.24 174.1 C-62.62 174.89 -64.01 175.67 -65.39 176.46 C-69.89 179 -69.89 179 -71 179 C-70.97 176.25 -70.9 173.5 -70.81 170.75 C-70.8 169.58 -70.8 169.58 -70.79 168.39 C-70.77 167.64 -70.74 166.89 -70.71 166.11 C-70.69 165.42 -70.68 164.73 -70.66 164.01 C-69.12 159.3 -63.45 156.98 -59.37 154.67 C-58.27 154.04 -57.16 153.42 -56.03 152.77 C-54.83 152.1 -53.63 151.42 -52.44 150.75 C-51.2 150.05 -49.95 149.34 -48.71 148.64 C-46.12 147.17 -43.53 145.7 -40.94 144.23 C-35.21 140.99 -29.5 137.72 -23.79 134.46 C-22.06 133.47 -20.32 132.48 -18.59 131.49 C-17.51 130.88 -16.43 130.26 -15.31 129.62 C-14.38 129.09 -13.45 128.56 -12.49 128.01 C-11.98 127.69 -11.48 127.38 -10.96 127.05 C-9 126 -9 126 -5.99 125 C-2.1 123.43 0.17 122.12 3 119 C5.35 111.93 4.59 103.96 4.45 96.62 C4.45 94.4 4.45 92.18 4.46 89.96 C4.46 85.31 4.42 80.67 4.34 76.02 C4.25 70.07 4.25 64.12 4.28 58.16 C4.29 53.58 4.27 49 4.23 44.42 C4.21 42.22 4.21 40.03 4.21 37.83 C4.21 34.77 4.16 31.7 4.1 28.64 C4.11 27.73 4.12 26.82 4.13 25.89 C4.04 23.35 3.9 21.38 3 19 C0.57 16.77 -1.99 15.33 -5 14 C-4.47 8.65 -2.53 4.64 0 0 Z " fill="#846D41" transform="translate(220,63)"/>
<path d="M0 0 C2.36 3.71 4.03 7.52 3.94 11.94 C3 14 3 14 0 16 C-0.44 17.86 -0.44 17.86 -0.36 20.04 C-0.37 21.3 -0.37 21.3 -0.37 22.59 C-0.36 23.52 -0.35 24.45 -0.34 25.41 C-0.34 26.38 -0.34 27.36 -0.34 28.36 C-0.34 31.6 -0.32 34.83 -0.29 38.07 C-0.29 40.31 -0.28 42.55 -0.28 44.79 C-0.27 50.69 -0.24 56.59 -0.21 62.49 C-0.18 68.51 -0.16 74.53 -0.15 80.55 C-0.11 92.37 -0.06 104.18 0 116 C4.36 118.49 8.71 120.98 13.07 123.47 C13.71 123.84 14.35 124.2 15.02 124.58 C22.14 128.65 29.27 132.73 36.4 136.78 C38.07 137.73 38.07 137.73 39.78 138.7 C41.94 139.93 44.11 141.16 46.27 142.39 C48.44 143.63 50.61 144.87 52.77 146.13 C55.03 147.44 57.29 148.7 59.59 149.94 C69.38 155.35 69.38 155.35 71.36 160.39 C71.92 162.6 71.92 162.6 72.31 164.81 C72.49 165.56 72.67 166.31 72.86 167.08 C73.56 170.1 74 172.9 74 176 C70.21 174.58 66.8 172.85 63.3 170.83 C62.19 170.19 61.07 169.56 59.93 168.9 C58.72 168.2 57.52 167.51 56.31 166.81 C55.05 166.09 53.8 165.37 52.54 164.64 C48.69 162.43 44.84 160.22 41 158 C39.88 157.35 38.75 156.7 37.6 156.04 C33.34 153.58 29.09 151.13 24.85 148.68 C18.98 145.29 13.11 141.92 7.22 138.57 C5.92 137.83 4.62 137.1 3.32 136.36 C0.82 134.93 -1.69 133.52 -4.19 132.1 C-5.31 131.46 -6.44 130.83 -7.59 130.17 C-9.09 129.32 -9.09 129.32 -10.62 128.46 C-13 127 -13 127 -15 125 C-15.28 122.91 -15.28 122.91 -15.32 120.29 C-15.34 119.29 -15.36 118.3 -15.38 117.28 C-15.39 116.18 -15.41 115.09 -15.42 113.96 C-15.44 112.81 -15.46 111.66 -15.48 110.48 C-15.54 106.66 -15.58 102.84 -15.62 99.02 C-15.63 97.72 -15.64 96.41 -15.66 95.07 C-15.71 89.6 -15.76 84.13 -15.79 78.65 C-15.83 70.81 -15.91 62.97 -16.05 55.14 C-16.15 49.62 -16.2 44.11 -16.21 38.59 C-16.22 35.3 -16.26 32.01 -16.33 28.72 C-16.75 8.68 -16.75 8.68 -13.81 4.18 C-9.89 0.38 -5.25 -1.75 0 0 Z " fill="#836D41" transform="translate(49,66)"/>
<path d="" fill="#998251" transform="translate(0,0)"/>
</svg>
